<?xml version="1.0" standalone="no"?>
<!DOCTYPE svg PUBLIC "-//W3C//DTD SVG 20010904//EN"
 "http://www.w3.org/TR/2001/REC-SVG-20010904/DTD/svg10.dtd">
<svg version="1.0" xmlns="http://www.w3.org/2000/svg"
 width="1280.000000pt" height="1280.000000pt" viewBox="0 0 1280.000000 1280.000000"
 preserveAspectRatio="xMidYMid meet">
<g transform="translate(0.000000,1280.000000) scale(0.100000,-0.100000)"
fill="#000000" stroke="none">
<path d="M10651 11777 c-12 -6 -39 -42 -58 -79 -25 -46 -46 -72 -70 -85 -18
-10 -47 -35 -64 -56 -17 -21 -68 -80 -112 -131 -45 -51 -100 -114 -122 -141
-66 -79 -180 -214 -247 -290 -24 -27 -57 -66 -74 -86 -16 -20 -62 -74 -102
-120 -165 -191 -192 -226 -192 -251 0 -11 9 -81 20 -156 22 -150 36 -254 45
-318 4 -35 0 -48 -25 -83 -17 -22 -30 -45 -30 -49 0 -5 -13 -21 -30 -37 -16
-16 -30 -34 -30 -40 0 -7 -9 -20 -21 -31 -12 -10 -29 -35 -39 -54 -10 -19 -30
-46 -44 -59 -14 -14 -26 -29 -26 -35 0 -6 -18 -33 -40 -60 -22 -26 -40 -52
-40 -56 0 -5 -15 -26 -32 -48 -18 -22 -51 -66 -73 -97 -56 -80 -139 -195 -163
-225 -65 -83 -79 -151 -39 -188 31 -29 76 -28 118 2 19 14 57 38 86 55 28 17
67 43 85 59 18 16 53 42 78 58 25 16 75 50 111 77 37 26 69 47 73 47 4 0 37
25 73 55 37 30 71 55 75 55 5 0 34 19 64 43 31 23 78 56 105 73 28 17 60 40
72 52 12 11 49 37 82 57 33 21 80 55 105 75 25 20 56 43 69 50 13 7 66 43 117
81 106 79 121 104 102 178 -6 25 -33 87 -59 137 -25 50 -56 120 -69 155 -12
35 -25 69 -30 74 -5 6 -16 29 -25 53 -17 41 -17 44 5 100 37 95 80 194 105
243 14 26 25 53 25 61 0 8 16 47 35 87 19 39 35 77 35 84 0 6 8 26 19 42 10
17 23 47 30 67 7 20 35 87 62 150 28 62 53 122 56 133 3 11 16 43 29 70 49
103 84 194 84 219 0 37 -19 72 -47 85 -30 14 -33 14 -62 -2z m-311 -650 c0
-17 -29 -93 -84 -217 -25 -58 -46 -109 -46 -115 0 -5 -13 -35 -30 -65 -16 -30
-29 -61 -30 -68 0 -6 -11 -35 -25 -64 -13 -28 -27 -66 -31 -84 -8 -44 17 -128
78 -254 28 -57 59 -129 69 -159 11 -29 24 -60 30 -68 20 -23 -4 -57 -73 -101
-34 -23 -85 -58 -112 -79 -27 -21 -69 -49 -92 -63 -23 -14 -64 -42 -91 -63
-49 -38 -91 -68 -218 -154 -38 -26 -92 -64 -118 -85 -53 -41 -67 -46 -67 -23
0 20 18 51 55 97 17 20 45 58 63 85 18 26 73 104 123 172 49 68 92 135 96 149
6 25 0 97 -17 217 -11 72 -23 160 -36 252 -6 48 -4 57 22 95 15 24 43 59 61
78 18 19 52 58 75 86 94 112 236 279 289 338 31 35 62 73 68 85 13 23 41 29
41 8z"/>
<path d="M7859 10180 c-9 -5 -32 -24 -50 -41 -19 -18 -50 -43 -69 -58 -19 -14
-59 -47 -88 -73 -30 -27 -58 -48 -62 -48 -5 0 -37 -25 -71 -55 -34 -30 -65
-55 -70 -55 -5 0 -33 -21 -63 -47 -29 -27 -90 -77 -135 -113 -45 -36 -106 -86
-136 -112 -30 -26 -67 -55 -82 -65 -15 -9 -55 -41 -87 -70 -33 -29 -65 -53
-71 -53 -6 0 -26 -16 -45 -35 -19 -19 -52 -47 -74 -62 -22 -16 -60 -47 -85
-70 -24 -24 -48 -43 -52 -43 -4 0 -34 -23 -66 -51 -32 -28 -72 -61 -89 -73
-18 -11 -60 -45 -95 -73 -35 -29 -94 -77 -132 -105 -65 -51 -121 -96 -224
-184 -26 -22 -66 -53 -88 -70 -22 -16 -68 -51 -101 -79 -34 -27 -96 -77 -138
-110 -42 -33 -96 -76 -119 -96 -23 -19 -62 -51 -87 -69 -25 -19 -46 -38 -48
-42 -2 -4 -27 -24 -55 -45 -49 -35 -110 -84 -237 -188 -30 -25 -75 -61 -100
-80 -42 -32 -108 -84 -235 -185 -27 -21 -71 -58 -97 -81 -26 -23 -66 -53 -88
-66 -22 -13 -40 -27 -40 -32 0 -4 -24 -25 -53 -46 -28 -22 -80 -62 -113 -90
-34 -27 -93 -75 -130 -106 -38 -31 -83 -64 -101 -74 l-31 -18 -36 37 -35 38
-78 -5 c-43 -3 -112 -10 -153 -16 -41 -5 -163 -22 -270 -36 -107 -14 -224 -31
-260 -36 -36 -5 -95 -14 -132 -19 -38 -6 -99 -14 -138 -20 -38 -5 -100 -14
-137 -19 -38 -5 -180 -26 -318 -46 -137 -20 -281 -41 -320 -46 -121 -16 -250
-35 -410 -57 -199 -29 -425 -60 -530 -72 -103 -12 -136 -21 -176 -46 l-36 -23
-8 -141 -7 -141 -33 -32 c-18 -18 -68 -62 -111 -99 -93 -80 -302 -264 -359
-316 -22 -20 -63 -56 -90 -78 -28 -23 -63 -60 -79 -83 -27 -39 -28 -45 -22
-113 4 -40 11 -100 17 -133 15 -91 27 -169 44 -285 8 -58 20 -130 25 -160 5
-30 14 -88 19 -127 6 -40 16 -106 22 -146 24 -161 29 -195 38 -262 6 -38 13
-88 17 -110 7 -45 65 -107 124 -132 71 -30 106 -47 132 -65 14 -10 33 -18 42
-18 8 0 42 -16 75 -35 32 -19 65 -35 71 -35 7 0 36 -13 64 -29 28 -16 71 -37
96 -47 25 -10 55 -25 67 -35 13 -9 38 -20 57 -23 46 -9 70 -41 97 -129 45
-150 89 -271 103 -286 10 -9 35 -14 75 -14 l60 1 57 -117 c30 -64 69 -152 85
-197 16 -45 41 -105 57 -135 15 -30 39 -83 52 -119 13 -36 42 -103 66 -150 23
-47 49 -109 57 -138 9 -28 37 -96 63 -149 25 -54 54 -120 64 -148 10 -27 42
-102 72 -165 30 -63 61 -133 68 -155 7 -22 34 -85 60 -140 26 -55 56 -125 65
-155 10 -30 35 -89 56 -130 20 -41 54 -118 74 -170 21 -52 50 -120 66 -150 15
-30 35 -77 44 -105 9 -27 38 -95 64 -150 26 -55 56 -125 66 -155 22 -66 90
-198 114 -223 38 -39 104 -40 361 -7 36 5 108 14 160 19 121 14 235 28 330 40
41 6 129 17 195 25 66 8 154 20 195 26 41 6 107 15 145 20 191 25 196 26 221
51 13 14 27 41 31 61 6 40 -21 110 -123 322 -30 61 -54 116 -54 123 0 6 -18
46 -41 89 -23 43 -52 105 -64 138 -21 55 -87 189 -120 241 -6 11 -15 32 -19
47 -3 16 -33 83 -66 150 -33 68 -60 128 -60 135 0 7 -25 60 -55 118 -30 58
-55 110 -55 116 0 6 -24 59 -54 117 -29 59 -59 125 -66 147 -7 22 -37 88 -66
146 -30 58 -54 110 -54 116 0 21 27 32 101 43 158 24 221 59 261 144 16 36 0
84 -78 238 -35 70 -64 131 -64 137 0 13 -66 117 -80 126 -5 3 -10 13 -10 22 0
9 -13 38 -30 65 -31 51 -37 73 -20 83 10 6 66 13 280 35 52 5 133 15 180 20
47 6 124 15 171 19 121 13 179 45 179 100 0 51 18 54 115 21 49 -17 101 -30
115 -30 15 0 60 -11 100 -25 40 -14 84 -25 96 -25 13 0 63 -13 112 -30 50 -16
103 -30 118 -30 16 0 67 -14 114 -30 47 -16 97 -30 111 -30 14 0 52 -9 85 -20
32 -12 91 -27 129 -35 39 -8 95 -24 125 -35 30 -11 66 -20 80 -20 14 0 68 -13
120 -30 52 -16 103 -30 112 -30 10 0 50 -11 90 -24 40 -13 93 -27 117 -31 24
-4 76 -18 114 -31 39 -13 81 -24 94 -24 13 0 58 -11 101 -25 80 -25 233 -66
337 -90 72 -16 172 -48 181 -58 4 -4 24 -7 43 -7 20 0 71 -11 114 -25 42 -13
94 -27 114 -30 21 -4 70 -18 110 -31 39 -13 82 -24 94 -24 12 0 50 -9 83 -20
109 -36 122 -40 145 -40 13 0 58 -11 100 -24 42 -14 105 -32 141 -41 36 -8 81
-20 100 -26 19 -6 53 -14 75 -19 22 -5 56 -13 75 -19 19 -5 64 -17 100 -27
145 -38 176 -46 198 -55 35 -14 80 -11 108 7 31 21 71 104 79 169 4 28 15 79
25 115 17 63 32 130 70 330 11 52 23 111 29 130 5 19 12 60 16 90 4 30 16 89
27 130 12 41 24 107 28 145 7 66 22 164 55 355 8 47 15 105 15 130 0 25 7 85
15 135 8 49 17 144 20 210 3 66 10 140 15 165 22 111 29 891 10 1090 -24 239
-31 310 -40 410 -5 58 -11 119 -14 135 -3 17 -12 91 -21 165 -16 140 -20 168
-55 360 -22 121 -24 129 -65 305 -33 140 -41 177 -56 245 -6 30 -40 143 -74
250 -34 107 -70 225 -79 262 -9 37 -30 100 -45 140 -54 139 -90 233 -101 271
-7 22 -30 77 -51 124 -22 46 -49 112 -61 146 -11 34 -42 105 -68 157 -26 52
-53 113 -60 135 -7 22 -32 76 -55 120 -24 44 -50 100 -58 125 -8 25 -29 70
-47 100 -17 30 -38 73 -47 95 -31 72 -94 189 -125 227 -26 33 -35 38 -71 38
-23 0 -49 -5 -58 -10z m-93 -342 c-7 -32 -22 -133 -46 -308 -6 -47 -18 -123
-26 -170 -7 -47 -18 -125 -23 -175 -15 -141 -31 -282 -42 -375 -30 -256 -46
-1025 -26 -1305 33 -469 44 -585 97 -980 11 -87 55 -335 79 -455 12 -55 63
-263 86 -345 18 -64 23 -82 55 -220 11 -49 30 -121 41 -160 23 -79 21 -74 83
-280 24 -82 54 -193 66 -245 24 -107 22 -98 89 -311 27 -86 57 -189 67 -230 9
-41 50 -173 89 -294 40 -121 85 -265 100 -320 15 -55 40 -138 56 -184 16 -46
26 -88 23 -93 -9 -14 -98 0 -177 28 -38 13 -79 24 -92 24 -13 0 -63 14 -112
30 -48 17 -99 30 -113 30 -14 0 -50 9 -80 21 -30 11 -89 27 -130 35 -41 8 -99
23 -128 34 -29 11 -64 20 -77 20 -13 0 -64 13 -113 30 -50 16 -101 30 -114 30
-14 0 -58 11 -99 26 -41 14 -99 30 -129 35 -30 6 -80 19 -110 29 -30 10 -75
22 -100 25 -25 4 -74 18 -110 30 -36 13 -87 26 -113 30 -26 3 -64 13 -84 21
-20 9 -76 24 -126 35 -49 11 -103 26 -121 33 -17 7 -54 16 -81 20 -28 4 -81
19 -120 32 -38 14 -90 28 -115 31 -25 3 -67 14 -95 24 -27 11 -76 24 -108 29
-31 6 -91 22 -132 35 -42 14 -86 25 -98 25 -12 0 -62 13 -110 30 -49 16 -99
30 -112 30 -12 0 -56 11 -96 24 -41 13 -92 27 -114 30 -22 3 -74 17 -115 31
-41 13 -85 25 -98 25 -21 0 -66 12 -302 80 -41 12 -95 25 -120 28 l-45 7 -6
125 c-3 69 -11 253 -17 410 -16 374 -40 626 -92 955 -29 176 -23 146 -75 415
-14 74 -30 158 -35 185 -5 28 -14 68 -21 90 -6 22 -14 58 -18 80 -5 22 -25
103 -46 180 -21 77 -37 148 -37 158 1 18 34 49 108 102 23 17 59 45 80 63 22
18 68 56 103 85 62 51 99 79 256 200 41 32 75 63 75 67 0 5 9 11 19 15 11 3
46 29 79 58 84 72 187 156 237 192 24 17 60 45 81 63 58 49 166 136 190 153
12 8 43 33 70 56 62 54 130 109 220 177 40 30 75 60 79 66 4 6 23 21 43 34 21
13 63 46 94 72 32 27 92 76 134 109 42 33 103 84 136 113 33 28 64 52 69 52 5
0 36 24 69 53 32 28 93 79 135 112 42 33 104 83 138 110 34 28 78 62 97 76 19
15 46 37 60 50 14 13 39 33 55 43 31 21 128 99 205 166 25 21 66 54 91 72 26
18 64 48 85 66 38 33 109 90 259 207 41 33 107 86 144 118 38 31 73 57 78 57
5 0 19 11 31 25 12 14 29 25 38 25 13 0 15 -6 10 -32z m253 -100 c28 -54 51
-103 51 -110 0 -7 34 -80 75 -163 41 -82 75 -156 75 -163 0 -7 22 -57 49 -112
27 -54 57 -125 67 -157 10 -32 37 -100 61 -152 24 -52 53 -126 64 -165 12 -39
39 -118 60 -176 21 -58 50 -143 64 -190 14 -47 30 -99 35 -116 6 -17 10 -38
10 -47 0 -9 12 -52 26 -94 15 -43 30 -91 34 -108 4 -16 21 -77 38 -135 16 -58
35 -132 42 -165 6 -33 15 -78 20 -100 11 -53 45 -250 69 -410 19 -120 28 -188
52 -385 31 -259 51 -762 43 -1090 -3 -140 -8 -262 -11 -270 -3 -8 -9 -80 -13
-160 -9 -160 -26 -347 -40 -455 -31 -226 -51 -353 -60 -379 -5 -16 -10 -48
-10 -72 0 -24 -7 -69 -16 -101 -8 -32 -20 -87 -25 -123 -4 -36 -13 -85 -19
-110 -6 -25 -17 -83 -25 -130 -8 -47 -21 -107 -30 -134 -8 -27 -15 -68 -15
-91 0 -63 -43 -92 -56 -37 -3 15 -17 59 -31 97 -13 39 -37 120 -53 180 -16 61
-50 173 -75 250 -48 143 -66 204 -91 310 -14 57 -31 113 -107 360 -19 61 -45
155 -57 210 -24 110 -52 207 -111 393 -22 68 -39 138 -37 155 l3 32 80 8 c105
10 203 27 240 43 73 31 155 165 155 255 0 20 5 61 10 90 26 134 2 556 -43 764
-58 265 -94 376 -171 532 -20 40 -36 76 -36 80 0 5 -12 22 -26 38 -15 17 -33
40 -41 52 -8 13 -40 36 -71 53 -43 23 -68 30 -111 30 -64 0 -156 -15 -225 -37
-75 -25 -75 -27 -77 281 -2 302 -3 288 11 596 14 307 26 461 40 535 6 33 15
103 19 155 11 122 27 247 52 385 10 61 19 124 19 142 0 36 25 156 40 191 6 13
14 22 19 20 5 -2 32 -47 60 -100z m103 -2370 c43 -47 79 -111 104 -185 9 -26
24 -66 34 -88 28 -65 80 -226 89 -280 55 -309 64 -402 58 -557 -12 -285 -16
-317 -45 -377 -26 -54 -29 -56 -82 -69 -30 -7 -100 -13 -154 -14 -115 -1 -117
0 -135 90 -6 31 -22 113 -36 182 -14 69 -28 139 -31 155 -3 17 -9 53 -14 80
-41 221 -61 366 -90 645 -6 58 -15 128 -20 155 -18 103 -22 221 -8 232 30 25
192 70 257 72 27 1 41 -7 73 -41z m-4123 -266 c6 -11 17 -52 26 -93 21 -98 25
-117 90 -384 57 -233 69 -286 80 -340 3 -16 10 -48 16 -70 5 -22 13 -65 18
-95 6 -30 18 -104 29 -165 52 -296 82 -606 82 -851 0 -61 5 -135 10 -165 14
-74 19 -656 6 -669 -6 -6 -26 -10 -46 -10 -19 0 -73 -5 -120 -10 -106 -14
-294 -38 -380 -50 -36 -5 -105 -14 -155 -20 -49 -6 -121 -15 -160 -20 -249
-33 -471 -60 -705 -84 -85 -9 -184 -21 -220 -26 -36 -5 -117 -14 -180 -20 -63
-6 -144 -15 -180 -20 -36 -5 -114 -14 -175 -20 -60 -6 -141 -15 -180 -20 -236
-31 -227 -34 -250 67 -10 43 -33 130 -52 193 -48 165 -59 204 -87 310 -26 99
-72 326 -86 420 -4 30 -15 93 -24 140 -32 167 -63 431 -71 615 -10 201 -13
1003 -4 1017 4 6 33 15 66 20 32 4 90 13 128 18 39 6 100 15 138 20 37 6 99
15 137 20 38 6 100 14 138 19 37 5 180 26 317 46 138 20 280 41 318 46 37 5
100 14 140 19 39 6 106 15 147 21 41 6 100 14 130 19 30 4 91 13 135 19 44 6
132 18 195 26 63 9 151 21 195 26 44 6 109 14 145 19 36 5 101 14 145 20 44 6
105 15 135 19 87 13 99 12 109 -7z m-2888 -1033 c13 -549 35 -802 96 -1109 39
-193 39 -195 82 -364 45 -173 48 -196 27 -196 -15 0 -118 43 -156 66 -14 8
-41 22 -60 30 -55 24 -181 85 -230 111 -25 14 -57 30 -72 36 -33 13 -36 20
-48 106 -17 118 -81 554 -91 621 -5 36 -14 97 -20 135 -5 39 -14 97 -19 130
-17 118 -31 237 -28 244 3 9 209 197 318 291 35 30 88 79 119 107 31 29 61 51
66 49 6 -1 12 -102 16 -257z m2434 -2114 c12 -23 35 -61 53 -85 17 -25 44 -73
61 -107 16 -34 42 -81 58 -105 16 -24 37 -63 48 -88 10 -25 29 -67 42 -94 28
-61 29 -72 3 -86 -24 -13 -227 -40 -245 -33 -7 2 -20 27 -29 54 -9 28 -39 94
-65 147 -27 53 -52 108 -56 122 -4 14 -32 73 -61 131 -53 103 -64 142 -44 154
12 7 180 34 200 32 8 -1 24 -20 35 -42z m-433 -28 c7 -8 24 -38 37 -68 13 -30
52 -115 87 -189 35 -75 64 -141 64 -147 0 -9 48 -107 98 -198 6 -11 21 -47 33
-80 13 -33 40 -90 60 -127 21 -37 46 -94 57 -125 11 -32 37 -87 57 -123 20
-36 45 -91 55 -122 10 -31 38 -94 63 -140 24 -46 52 -105 62 -133 11 -27 38
-86 60 -130 23 -44 48 -100 55 -125 8 -25 17 -49 21 -55 15 -21 68 -127 90
-182 13 -32 40 -90 61 -130 21 -40 47 -98 59 -130 11 -32 25 -67 31 -78 42
-75 62 -117 78 -163 10 -29 39 -91 64 -138 47 -88 53 -108 36 -119 -5 -3 -82
-14 -172 -25 -90 -11 -192 -24 -228 -29 -77 -12 -195 -26 -340 -41 -58 -6
-130 -15 -160 -20 -30 -5 -118 -16 -195 -25 -77 -8 -157 -18 -177 -20 -23 -3
-41 0 -48 7 -16 19 -100 197 -117 248 -8 25 -37 91 -64 148 -27 57 -58 129
-68 160 -11 32 -42 105 -70 162 -28 58 -51 110 -51 117 0 6 -22 58 -48 115
-27 57 -57 128 -67 158 -10 30 -39 98 -65 150 -26 52 -53 113 -60 135 -6 22
-36 92 -66 156 -30 65 -54 122 -54 128 0 7 -23 60 -51 119 -28 59 -59 132 -69
162 -10 30 -43 107 -75 170 -31 63 -65 141 -76 174 -11 32 -37 95 -59 140 -49
104 -101 236 -103 261 -2 24 29 30 468 81 77 8 199 22 270 30 72 8 171 19 220
25 94 10 238 25 267 28 9 0 23 -5 30 -12z"/>
<path d="M10399 7338 c-57 -29 -131 -65 -164 -82 -33 -16 -76 -39 -95 -51 -19
-12 -55 -29 -80 -39 -25 -10 -93 -44 -152 -77 -58 -32 -112 -59 -120 -59 -7
-1 -49 -21 -93 -46 -44 -25 -112 -60 -151 -79 -91 -43 -134 -100 -106 -141 31
-45 96 -54 217 -30 39 7 104 19 145 26 41 7 120 21 175 31 105 20 186 35 246
44 38 6 50 -1 135 -74 23 -20 63 -55 90 -78 264 -228 343 -296 364 -317 14
-13 46 -40 73 -60 62 -47 100 -48 153 -3 21 19 66 52 99 76 68 47 134 97 184
138 18 15 62 48 96 73 66 48 124 92 231 178 36 28 69 52 74 52 4 0 40 26 79
58 153 124 198 158 251 194 169 115 214 174 177 232 -26 39 -73 43 -159 13
-40 -13 -91 -29 -113 -35 -106 -28 -304 -94 -400 -132 -11 -4 -60 -20 -110
-35 -136 -40 -292 -90 -370 -119 -38 -14 -74 -26 -78 -26 -5 0 -91 82 -191
183 -166 167 -251 237 -289 237 -8 0 -61 -23 -118 -52z m263 -275 c77 -76 171
-167 207 -202 l65 -63 55 6 c51 6 283 79 406 128 47 19 226 68 247 68 5 0 8
-4 6 -9 -5 -14 -120 -111 -173 -146 -27 -19 -63 -47 -79 -64 -17 -17 -35 -31
-41 -31 -6 0 -43 -26 -82 -57 -154 -123 -293 -222 -313 -222 -9 -1 -65 42
-125 95 -105 92 -153 134 -275 239 -30 27 -57 51 -60 55 -14 21 -177 141 -198
147 -13 3 -40 2 -60 -2 -95 -19 -140 -4 -79 26 18 9 82 41 142 72 168 86 189
96 203 96 7 1 76 -61 154 -136z"/>
<path d="M10403 4042 l-642 -2 -20 -29 c-21 -28 -27 -74 -15 -105 12 -32 89
-67 214 -96 30 -7 71 -21 90 -30 19 -10 51 -21 70 -25 19 -4 60 -19 90 -34 30
-15 71 -34 90 -41 51 -19 167 -97 175 -118 37 -92 44 -206 20 -317 -9 -39 -19
-88 -22 -110 -3 -22 -17 -73 -30 -113 -31 -96 -26 -124 30 -151 31 -15 71 -22
152 -26 61 -3 193 -12 295 -20 373 -30 508 -39 955 -64 99 -5 201 -13 227 -17
36 -5 54 -3 73 10 37 24 58 62 51 91 -6 25 -98 95 -125 95 -8 0 -47 15 -85 34
-39 19 -108 53 -154 75 -46 23 -90 41 -99 41 -8 0 -27 8 -41 19 -15 10 -38 22
-52 26 -25 7 -114 48 -245 111 -38 19 -77 34 -86 34 -9 0 -28 9 -43 21 -14 11
-51 29 -81 40 -66 23 -155 76 -155 92 0 7 5 29 11 51 6 21 17 75 24 120 7 44
25 144 39 220 22 122 23 142 11 166 -17 32 -33 46 -60 51 -11 2 -309 3 -662 1z
m541 -208 c-1 -37 -8 -74 -56 -295 -14 -63 -19 -115 -16 -154 4 -53 9 -62 41
-90 20 -18 56 -37 79 -44 24 -7 60 -23 80 -37 21 -13 43 -24 50 -24 6 0 43
-15 82 -34 39 -18 110 -52 158 -75 48 -22 91 -41 96 -41 20 0 123 -63 119 -74
-5 -17 -82 -19 -225 -5 -122 11 -287 22 -587 37 -77 4 -146 11 -154 16 -15 10
-11 47 14 136 10 33 18 116 22 206 6 161 -6 233 -48 280 -11 11 -19 25 -19 31
0 14 -116 113 -133 113 -8 0 -25 8 -38 18 -13 10 -36 23 -51 30 -18 7 -28 19
-28 32 0 21 2 21 308 17 l307 -4 -1 -39z"/>
</g>
</svg>
