<svg version="1.1" id="Layer_1" xmlns="http://www.w3.org/2000/svg" xmlns:xlink="http://www.w3.org/1999/xlink" x="0px" y="0px"
	 width="100%" viewBox="0 0 500 500" enable-background="new 0 0 500 500" xml:space="preserve">
<path fill="#000000" opacity="1.000000" stroke="none" 
	d="
M335.000000,501.000000 
	C223.333359,501.000000 112.166718,501.000000 1.000060,501.000000 
	C1.000040,334.333405 1.000040,167.666794 1.000020,1.000149 
	C167.666565,1.000099 334.333130,1.000099 500.999756,1.000050 
	C500.999847,167.666519 500.999847,334.333038 500.999939,500.999786 
	C445.833344,501.000000 390.666656,501.000000 335.000000,501.000000 
M382.996552,176.803680 
	C383.011566,220.161819 383.026581,263.519958 382.995789,307.632324 
	C381.839172,313.655792 377.600189,316.717773 372.125610,317.822479 
	C367.631012,318.729462 362.935760,318.930817 358.330688,318.920044 
	C353.830719,318.909546 351.090942,320.673096 349.191650,325.357574 
	C349.145447,335.065094 349.138702,344.773102 349.011993,354.479553 
	C348.992126,356.000427 348.427368,357.514191 347.479614,358.738617 
	C333.564758,348.906403 319.718079,338.975464 305.700562,329.291870 
	C300.297943,325.559631 294.507019,322.389465 288.565002,318.162231 
	C264.682617,318.104980 240.800232,318.039764 216.917831,318.033203 
	C216.272614,318.033051 215.627243,318.666992 214.281204,319.095215 
	C209.087692,321.368896 208.704315,325.857391 209.013199,330.629364 
	C209.254181,334.352600 212.029755,335.321777 215.312439,336.845917 
	C238.799271,336.867615 262.286102,336.889282 286.348602,337.315582 
	C286.975800,337.844177 287.565033,338.427429 288.235809,338.893250 
	C299.918823,347.005707 311.647675,355.052612 323.291656,363.220581 
	C333.229126,370.191528 342.932983,377.504211 353.005341,384.271118 
	C359.598450,388.700562 364.058716,386.849243 367.508270,378.694458 
	C367.344910,364.796143 367.181549,350.897827 367.834778,336.998718 
	C370.402344,336.456360 372.963440,335.482025 375.538513,335.443634 
	C389.423615,335.236542 402.700623,318.029602 401.840149,305.698334 
	C401.908630,305.206299 402.036926,304.714325 402.037048,304.222260 
	C402.047943,262.947571 402.057220,221.672897 402.006866,180.398285 
	C402.005493,179.272324 401.354645,178.147156 401.011017,176.152405 
	C400.564545,159.294373 388.124207,149.126175 373.369720,146.179718 
	C367.216980,144.951004 361.945465,148.575638 361.079590,153.638580 
	C360.094086,159.401108 362.852173,162.746719 369.634644,164.015900 
	C377.994781,165.580292 381.607605,168.787430 382.996552,176.803680 
M323.908417,304.993134 
	C337.265442,305.655029 351.492310,291.254517 351.833740,277.695770 
	C351.893250,277.368988 352.004852,277.042175 352.004883,276.715393 
	C352.009644,233.109604 352.012604,189.503815 351.961670,145.898071 
	C351.960571,144.940048 351.339630,143.982742 350.999695,142.224731 
	C349.715729,138.708328 348.917297,134.907288 347.054657,131.730118 
	C341.938995,123.004036 333.939270,118.124657 323.776398,115.214516 
	C323.287537,115.132919 322.798645,114.979858 322.309784,114.979851 
	C259.001434,114.978905 195.693100,114.983963 132.384796,115.040749 
	C131.251938,115.041763 130.119629,115.668900 128.203552,116.022896 
	C111.991737,119.836693 102.219872,130.246628 101.417412,144.615967 
	C101.275116,145.592239 101.008858,146.568466 101.008354,147.544815 
	C100.986526,189.958786 100.979042,232.372772 101.027328,274.786682 
	C101.028931,276.196045 101.624481,277.604706 101.974144,279.835632 
	C102.662544,287.827576 106.028145,294.748566 112.347397,299.392670 
	C118.899811,304.208099 126.660515,306.609497 135.019730,306.954620 
	C135.009003,320.101624 134.967957,333.248779 135.032501,346.395416 
	C135.039261,347.774628 135.669174,349.150726 136.157974,351.184906 
	C138.961227,356.257111 145.304413,357.696533 150.115021,354.269135 
	C156.431229,349.769012 162.731155,345.244476 168.975098,340.644897 
	C176.538910,335.073090 183.960739,329.306183 191.583923,323.818054 
	C199.964020,317.785065 208.503204,311.973053 217.914658,306.018646 
	C251.992889,306.156281 286.071075,306.305939 320.149475,306.370331 
	C321.121246,306.372162 322.094696,305.467041 323.908417,304.993134 
z"/>
<path fill="#030303" opacity="1.000000" stroke="none" 
	d="
M350.999939,278.000244 
	C351.492310,291.254517 337.265442,305.655029 323.013550,304.966705 
	C288.954132,304.962433 255.789520,304.967377 222.625107,305.051758 
	C220.740234,305.056549 218.857025,305.712067 216.973053,306.064758 
	C208.503204,311.973053 199.964020,317.785065 191.583923,323.818054 
	C183.960739,329.306183 176.538910,335.073090 168.975098,340.644897 
	C162.731155,345.244476 156.431229,349.769012 150.115021,354.269135 
	C145.304413,357.696533 138.961227,356.257111 136.135147,350.348267 
	C136.069794,336.744293 136.062103,323.976654 135.943710,311.210052 
	C135.927643,309.477875 135.356903,307.750854 135.042999,306.021423 
	C126.660515,306.609497 118.899811,304.208099 112.347397,299.392670 
	C106.028145,294.748566 102.662544,287.827576 101.983444,278.955658 
	C101.981102,233.377914 101.969452,188.680161 101.957802,143.982391 
	C102.219872,130.246628 111.991737,119.836693 129.064316,116.036827 
	C194.665909,116.046234 259.406738,116.041710 324.147583,116.037186 
	C333.939270,118.124657 341.938995,123.004036 347.054657,131.730118 
	C348.917297,134.907288 349.715729,138.708328 350.960419,143.090317 
	C350.947388,188.637344 350.973663,233.318802 350.999939,278.000244 
M333.018219,145.339478 
	C331.853149,138.876434 326.872772,134.208817 320.506805,133.168808 
	C320.011078,133.116074 319.515320,133.017197 319.019592,133.017120 
	C257.211945,133.007812 195.404327,133.000473 133.596725,133.043549 
	C132.427551,133.044357 131.258820,133.645935 129.451752,134.260269 
	C125.039513,137.034103 119.279617,138.511047 118.324585,145.734406 
	C118.217705,146.553864 118.017624,147.373291 118.017311,148.192780 
	C118.001610,189.769485 117.995415,231.346222 118.038757,272.922882 
	C118.040054,274.171021 118.579071,275.418610 119.162086,277.359406 
	C120.427391,282.324707 123.263130,286.407532 128.168671,287.659119 
	C132.330399,288.720978 136.940598,288.704773 141.264725,288.277924 
	C146.631577,287.748138 150.858383,289.961182 151.914703,295.892151 
	C151.924393,296.890472 151.942154,297.888824 151.942490,298.887146 
	C151.945663,308.205658 151.900238,317.524811 152.034637,326.841400 
	C152.045242,327.576813 150.554260,330.914337 154.422699,328.478851 
	C162.220291,322.913544 169.971176,317.281311 177.826767,311.799133 
	C188.783264,304.152924 199.818039,296.618835 211.782715,289.105011 
	C246.505585,289.067871 281.228485,289.044495 315.951233,288.956512 
	C317.859985,288.951691 319.767334,288.409790 322.368317,287.828918 
	C327.757202,285.980042 332.447205,283.448669 333.724426,276.429626 
	C333.815643,275.772980 333.986420,275.116364 333.986664,274.459686 
	C334.003540,232.671921 334.013153,190.884155 333.970490,149.096436 
	C333.969482,148.106461 333.369171,147.117126 333.018219,145.339478 
z"/>
<path fill="#040404" opacity="1.000000" stroke="none" 
	d="
M288.893036,318.963196 
	C294.507019,322.389465 300.297943,325.559631 305.700562,329.291870 
	C319.718079,338.975464 333.564758,348.906403 347.976715,359.216034 
	C348.962006,358.409637 349.856995,357.131165 349.873932,355.841156 
	C350.008850,345.565735 349.977295,335.288147 349.996765,325.011200 
	C351.090942,320.673096 353.830719,318.909546 358.330688,318.920044 
	C362.935760,318.930817 367.631012,318.729462 372.125610,317.822479 
	C377.600189,316.717773 381.839172,313.655792 383.342957,306.997498 
	C383.797821,305.711548 383.999481,305.060425 383.999817,304.409271 
	C384.018982,262.734192 384.030548,221.059082 383.981232,179.384064 
	C383.979858,178.203369 383.314056,177.023438 382.958038,175.843155 
	C381.607605,168.787430 377.994781,165.580292 369.634644,164.015900 
	C362.852173,162.746719 360.094086,159.401108 361.079590,153.638580 
	C361.945465,148.575638 367.216980,144.951004 373.369720,146.179718 
	C388.124207,149.126175 400.564545,159.294373 400.966949,177.052643 
	C400.949280,220.633011 400.975677,263.313141 401.002075,305.993256 
	C402.700623,318.029602 389.423615,335.236542 375.538513,335.443634 
	C372.963440,335.482025 370.402344,336.456360 367.136780,336.968079 
	C366.324768,350.487000 366.199677,364.036560 366.136017,377.586395 
	C366.133423,378.143555 366.707306,378.703400 367.012604,379.261993 
	C364.058716,386.849243 359.598450,388.700562 353.005341,384.271118 
	C342.932983,377.504211 333.229126,370.191528 323.291656,363.220581 
	C311.647675,355.052612 299.918823,347.005707 288.235809,338.893250 
	C287.565033,338.427429 286.975800,337.844177 285.833282,336.767944 
	C261.886963,336.149506 238.455994,336.078735 215.025009,336.007965 
	C212.029755,335.321777 209.254181,334.352600 209.013199,330.629364 
	C208.704315,325.857391 209.087692,321.368896 215.101334,319.061035 
	C240.245316,319.005646 264.569183,318.984406 288.893036,318.963196 
z"/>
<path fill="#E2E2E2" opacity="1.000000" stroke="none" 
	d="
M323.961975,115.625854 
	C259.406738,116.041710 194.665909,116.046234 129.456070,116.027313 
	C130.119629,115.668900 131.251938,115.041763 132.384796,115.040749 
	C195.693100,114.983963 259.001434,114.978905 322.309784,114.979851 
	C322.798645,114.979858 323.287537,115.132919 323.961975,115.625854 
z"/>
<path fill="#060606" opacity="1.000000" stroke="none" 
	d="
M101.687607,144.299179 
	C101.969452,188.680161 101.981102,233.377914 101.967964,278.544678 
	C101.624481,277.604706 101.028931,276.196045 101.027328,274.786682 
	C100.979042,232.372772 100.986526,189.958786 101.008354,147.544815 
	C101.008858,146.568466 101.275116,145.592239 101.687607,144.299179 
z"/>
<path fill="#E2E2E2" opacity="1.000000" stroke="none" 
	d="
M351.416840,277.848022 
	C350.973663,233.318802 350.947388,188.637344 350.964478,143.490509 
	C351.339630,143.982742 351.960571,144.940048 351.961670,145.898071 
	C352.012604,189.503815 352.009644,233.109604 352.004883,276.715393 
	C352.004852,277.042175 351.893250,277.368988 351.416840,277.848022 
z"/>
<path fill="#838383" opacity="1.000000" stroke="none" 
	d="
M382.977295,176.323425 
	C383.314056,177.023438 383.979858,178.203369 383.981232,179.384064 
	C384.030548,221.059082 384.018982,262.734192 383.999817,304.409271 
	C383.999481,305.060425 383.797821,305.711548 383.365845,306.620392 
	C383.026581,263.519958 383.011566,220.161819 382.977295,176.323425 
z"/>
<path fill="#E2E2E2" opacity="1.000000" stroke="none" 
	d="
M401.421112,305.845795 
	C400.975677,263.313141 400.949280,220.633011 400.964783,177.487244 
	C401.354645,178.147156 402.005493,179.272324 402.006866,180.398285 
	C402.057220,221.672897 402.047943,262.947571 402.037048,304.222260 
	C402.036926,304.714325 401.908630,305.206299 401.421112,305.845795 
z"/>
<path fill="#3A3A3A" opacity="1.000000" stroke="none" 
	d="
M217.443848,306.041687 
	C218.857025,305.712067 220.740234,305.056549 222.625107,305.051758 
	C255.789520,304.967377 288.954132,304.962433 322.593048,304.962524 
	C322.094696,305.467041 321.121246,306.372162 320.149475,306.370331 
	C286.071075,306.305939 251.992889,306.156281 217.443848,306.041687 
z"/>
<path fill="#B6B6B6" opacity="1.000000" stroke="none" 
	d="
M288.729004,318.562714 
	C264.569183,318.984406 240.245316,319.005646 215.451706,319.016052 
	C215.627243,318.666992 216.272614,318.033051 216.917831,318.033203 
	C240.800232,318.039764 264.682617,318.104980 288.729004,318.562714 
z"/>
<path fill="#E2E2E2" opacity="1.000000" stroke="none" 
	d="
M215.168732,336.426941 
	C238.455994,336.078735 261.886963,336.149506 285.545471,336.565613 
	C262.286102,336.889282 238.799271,336.867615 215.168732,336.426941 
z"/>
<path fill="#3A3A3A" opacity="1.000000" stroke="none" 
	d="
M135.031372,306.488037 
	C135.356903,307.750854 135.927643,309.477875 135.943710,311.210052 
	C136.062103,323.976654 136.069794,336.744293 136.061142,350.019958 
	C135.669174,349.150726 135.039261,347.774628 135.032501,346.395416 
	C134.967957,333.248779 135.009003,320.101624 135.031372,306.488037 
z"/>
<path fill="#3A3A3A" opacity="1.000000" stroke="none" 
	d="
M367.260437,378.978210 
	C366.707306,378.703400 366.133423,378.143555 366.136017,377.586395 
	C366.199677,364.036560 366.324768,350.487000 366.728516,336.968445 
	C367.181549,350.897827 367.344910,364.796143 367.260437,378.978210 
z"/>
<path fill="#838383" opacity="1.000000" stroke="none" 
	d="
M349.594208,325.184387 
	C349.977295,335.288147 350.008850,345.565735 349.873932,355.841156 
	C349.856995,357.131165 348.962006,358.409637 348.294189,359.362335 
	C348.427368,357.514191 348.992126,356.000427 349.011993,354.479553 
	C349.138702,344.773102 349.145447,335.065094 349.594208,325.184387 
z"/>
<path fill="#000000" opacity="1.000000" stroke="none" 
	d="
M151.987335,294.950134 
	C150.858383,289.961182 146.631577,287.748138 141.264725,288.277924 
	C136.940598,288.704773 132.330399,288.720978 128.168671,287.659119 
	C123.263130,286.407532 120.427391,282.324707 119.023689,276.568298 
	C118.900131,232.249542 118.914970,188.721878 118.929810,145.194229 
	C119.279617,138.511047 125.039513,137.034103 130.233643,134.112686 
	C194.298111,133.959351 257.580688,133.953598 320.863251,133.947845 
	C326.872772,134.208817 331.853149,138.876434 333.009644,146.193390 
	C333.011566,190.334473 333.022034,233.621628 333.032501,276.908783 
	C332.447205,283.448669 327.757202,285.980042 321.581482,287.958008 
	C285.139343,288.048798 249.484039,288.001770 213.828766,288.016937 
	C212.825470,288.017365 211.822479,288.681915 210.819336,289.036774 
	C199.818039,296.618835 188.783264,304.152924 177.826767,311.799133 
	C169.971176,317.281311 162.220291,322.913544 153.874130,328.479309 
	C153.236954,318.774567 153.191635,309.068573 153.013687,299.365051 
	C152.986588,297.887634 152.344803,296.421478 151.987335,294.950134 
M233.810577,222.534058 
	C236.072174,219.633881 238.801132,216.980957 240.494354,213.780121 
	C243.649231,207.816238 241.207855,201.290359 234.628540,196.133514 
	C229.562271,192.162613 220.903412,193.122528 217.105911,196.375046 
	C210.672424,201.885300 209.253555,210.230759 213.206955,217.477142 
	C215.916351,222.443375 225.376358,226.613205 233.810577,222.534058 
M182.803787,213.076889 
	C182.998825,210.957977 183.723114,208.723480 183.290253,206.741714 
	C181.960693,200.654526 178.471298,195.740524 172.244720,194.428360 
	C166.984268,193.319794 161.170227,192.791473 156.908539,197.644241 
	C152.138580,203.075821 151.796661,209.428925 154.013031,215.860657 
	C155.820496,221.105743 162.238739,225.196350 167.926636,224.554855 
	C174.638535,223.797852 180.100372,220.674911 182.803787,213.076889 
M272.498474,199.191055 
	C271.666382,202.987274 270.263397,206.762222 270.121063,210.584122 
	C269.825195,218.528488 275.770325,224.240234 284.165100,224.820175 
	C290.039154,225.225983 298.776855,218.500366 299.855286,212.743057 
	C301.212982,205.494858 298.087189,198.628952 291.996796,195.481720 
	C285.719727,192.237991 278.035278,193.494339 272.498474,199.191055 
z"/>
<path fill="#B6B6B6" opacity="1.000000" stroke="none" 
	d="
M320.685028,133.558319 
	C257.580688,133.953598 194.298111,133.959351 130.552704,133.966156 
	C131.258820,133.645935 132.427551,133.044357 133.596725,133.043549 
	C195.404327,133.000473 257.211945,133.007812 319.019592,133.017120 
	C319.515320,133.017197 320.011078,133.116074 320.685028,133.558319 
z"/>
<path fill="#838383" opacity="1.000000" stroke="none" 
	d="
M118.627197,145.464325 
	C118.914970,188.721878 118.900131,232.249542 118.876343,276.221802 
	C118.579071,275.418610 118.040054,274.171021 118.038757,272.922882 
	C117.995415,231.346222 118.001610,189.769485 118.017311,148.192780 
	C118.017624,147.373291 118.217705,146.553864 118.627197,145.464325 
z"/>
<path fill="#B6B6B6" opacity="1.000000" stroke="none" 
	d="
M333.378479,276.669189 
	C333.022034,233.621628 333.011566,190.334473 333.024750,146.587402 
	C333.369171,147.117126 333.969482,148.106461 333.970490,149.096436 
	C334.013153,190.884155 334.003540,232.671921 333.986664,274.459686 
	C333.986420,275.116364 333.815643,275.772980 333.378479,276.669189 
z"/>
<path fill="#5F5F5F" opacity="1.000000" stroke="none" 
	d="
M211.301025,289.070892 
	C211.822479,288.681915 212.825470,288.017365 213.828766,288.016937 
	C249.484039,288.001770 285.139343,288.048798 321.234985,288.102509 
	C319.767334,288.409790 317.859985,288.951691 315.951233,288.956512 
	C281.228485,289.044495 246.505585,289.067871 211.301025,289.070892 
z"/>
<path fill="#5F5F5F" opacity="1.000000" stroke="none" 
	d="
M151.951019,295.421143 
	C152.344803,296.421478 152.986588,297.887634 153.013687,299.365051 
	C153.191635,309.068573 153.236954,318.774567 153.663605,328.737762 
	C150.554260,330.914337 152.045242,327.576813 152.034637,326.841400 
	C151.900238,317.524811 151.945663,308.205658 151.942490,298.887146 
	C151.942154,297.888824 151.924393,296.890472 151.951019,295.421143 
z"/>
<path fill="#060606" opacity="1.000000" stroke="none" 
	d="
M233.479614,222.729294 
	C225.376358,226.613205 215.916351,222.443375 213.206955,217.477142 
	C209.253555,210.230759 210.672424,201.885300 217.105911,196.375046 
	C220.903412,193.122528 229.562271,192.162613 234.628540,196.133514 
	C241.207855,201.290359 243.649231,207.816238 240.494354,213.780121 
	C238.801132,216.980957 236.072174,219.633881 233.479614,222.729294 
z"/>
<path fill="#060606" opacity="1.000000" stroke="none" 
	d="
M182.684662,213.442749 
	C180.100372,220.674911 174.638535,223.797852 167.926636,224.554855 
	C162.238739,225.196350 155.820496,221.105743 154.013031,215.860657 
	C151.796661,209.428925 152.138580,203.075821 156.908539,197.644241 
	C161.170227,192.791473 166.984268,193.319794 172.244720,194.428360 
	C178.471298,195.740524 181.960693,200.654526 183.290253,206.741714 
	C183.723114,208.723480 182.998825,210.957977 182.684662,213.442749 
z"/>
<path fill="#060606" opacity="1.000000" stroke="none" 
	d="
M272.734558,198.891693 
	C278.035278,193.494339 285.719727,192.237991 291.996796,195.481720 
	C298.087189,198.628952 301.212982,205.494858 299.855286,212.743057 
	C298.776855,218.500366 290.039154,225.225983 284.165100,224.820175 
	C275.770325,224.240234 269.825195,218.528488 270.121063,210.584122 
	C270.263397,206.762222 271.666382,202.987274 272.734558,198.891693 
z"/>
</svg>